<svg width="14" height="14" viewBox="0 0 14 14" fill="none" xmlns="http://www.w3.org/2000/svg">
<g id="Group 1752">
<path id="Vector" d="M4 6C5.10457 6 6 5.10457 6 4V2C6 0.89543 5.10457 0 4 0H2C0.89543 0 0 0.895431 0 2V4C0 5.10457 0.895431 6 2 6H4ZM12 6C13.1046 6 14 5.10457 14 4V2C14 0.89543 13.1046 0 12 0H10C8.89543 0 8 0.895431 8 2V4C8 5.10457 8.89543 6 10 6H12ZM4 14C5.10457 14 6 13.1046 6 12V10C6 8.89543 5.10457 8 4 8H2C0.89543 8 0 8.89543 0 10V12C0 13.1046 0.895431 14 2 14H4ZM12 14C13.1046 14 14 13.1046 14 12V10C14 8.89543 13.1046 8 12 8H10C8.89543 8 8 8.89543 8 10V12C8 13.1046 8.89543 14 10 14H12Z" fill="white"/>
</g>
</svg>
