<svg width="22" height="22" viewBox="0 0 22 22" fill="none" xmlns="http://www.w3.org/2000/svg">
<g id="Frame 88">
<rect width="22" height="22" fill="white"/>
<path id="Vector" d="M8.76444 5.75574C8.7646 5.36198 8.66155 4.97506 8.46557 4.63354C8.26958 4.29203 7.98751 4.00784 7.64747 3.80931C7.30742 3.61079 6.92128 3.50485 6.52753 3.50208C6.13379 3.4993 5.74619 3.59977 5.40337 3.79348C5.06056 3.98718 4.77451 4.26736 4.57372 4.60608C4.37294 4.9448 4.26444 5.33023 4.25905 5.72395C4.25365 6.11766 4.35154 6.50592 4.54297 6.85002C4.73439 7.19411 5.01266 7.48202 5.35003 7.68505V15.07C4.92056 15.318 4.5849 15.7007 4.39512 16.1589C4.20534 16.6171 4.17204 17.125 4.3004 17.6041C4.42875 18.0831 4.71158 18.5064 5.10502 18.8083C5.49845 19.1102 5.98052 19.2738 6.47643 19.2738C6.97235 19.2738 7.45441 19.1102 7.84785 18.8083C8.24129 18.5064 8.52412 18.0831 8.65247 17.6041C8.78083 17.125 8.74753 16.6171 8.55775 16.1589C8.36797 15.7007 8.03231 15.318 7.60283 15.07V7.72694C7.9547 7.53188 8.24796 7.24622 8.45222 6.89961C8.65647 6.553 8.76427 6.15806 8.76444 5.75574ZM6.51163 4.62934C6.73442 4.62934 6.95219 4.6954 7.13743 4.81917C7.32266 4.94294 7.46704 5.11886 7.55229 5.32468C7.63755 5.53051 7.65985 5.75699 7.61639 5.97549C7.57293 6.19399 7.46565 6.3947 7.30812 6.55223C7.15059 6.70976 6.94988 6.81703 6.73138 6.8605C6.51288 6.90396 6.2864 6.88165 6.08058 6.7964C5.87476 6.71114 5.69884 6.56677 5.57507 6.38153C5.4513 6.1963 5.38523 5.97852 5.38523 5.75574C5.38523 5.457 5.50391 5.1705 5.71515 4.95925C5.92639 4.74801 6.21289 4.62934 6.51163 4.62934ZM6.47643 18.1461C6.25365 18.1461 6.03588 18.0801 5.85064 17.9563C5.6654 17.8325 5.52103 17.6566 5.43578 17.4508C5.35052 17.245 5.32822 17.0185 5.37168 16.8C5.41514 16.5815 5.52242 16.3808 5.67995 16.2233C5.83748 16.0657 6.03818 15.9585 6.25668 15.915C6.47519 15.8715 6.70167 15.8938 6.90749 15.9791C7.11331 16.0643 7.28923 16.2087 7.413 16.394C7.53677 16.5792 7.60283 16.797 7.60283 17.0197C7.60283 17.3185 7.48416 17.605 7.27292 17.8162C7.06168 18.0275 6.77517 18.1461 6.47643 18.1461ZM16.6492 15.07V7.86774C16.6483 7.00915 16.3068 6.18599 15.6997 5.57887C15.0926 4.97176 14.2694 4.63027 13.4108 4.62934H12.1788V2.72607L9.08616 5.75574L12.1788 8.78541V6.88214H13.4108C13.6722 6.88214 13.9229 6.98598 14.1078 7.17082C14.2926 7.35565 14.3964 7.60634 14.3964 7.86774V15.07C13.967 15.318 13.6313 15.7007 13.4415 16.1589C13.2517 16.6171 13.2184 17.125 13.3468 17.6041C13.4752 18.0831 13.758 18.5064 14.1514 18.8083C14.5449 19.1102 15.0269 19.2738 15.5228 19.2738C16.0188 19.2738 16.5008 19.1102 16.8943 18.8083C17.2877 18.5064 17.5705 18.0831 17.6989 17.6041C17.8272 17.125 17.7939 16.6171 17.6042 16.1589C17.4144 15.7007 17.0787 15.318 16.6492 15.07ZM15.5228 18.1461C15.3001 18.1461 15.0823 18.0801 14.897 17.9563C14.7118 17.8325 14.5674 17.6566 14.4822 17.4508C14.3969 17.245 14.3746 17.0185 14.4181 16.8C14.4615 16.5815 14.5688 16.3808 14.7264 16.2233C14.8839 16.0657 15.0846 15.9585 15.3031 15.915C15.5216 15.8715 15.7481 15.8938 15.9539 15.9791C16.1597 16.0643 16.3356 16.2087 16.4594 16.394C16.5832 16.5792 16.6492 16.797 16.6492 17.0197C16.6492 17.3185 16.5306 17.605 16.3193 17.8162C16.1081 18.0275 15.8216 18.1461 15.5228 18.1461Z" fill="#81C7A1"/>
</g>
</svg>
