<svg width="22" height="22" viewBox="0 0 22 22" fill="none" xmlns="http://www.w3.org/2000/svg">
<rect width="22" height="22" fill="white"/>
<path d="M13.9378 3.84832C14.4988 3.30028 15.2532 2.99548 16.0375 3.00005C16.8218 3.00462 17.5726 3.31818 18.1272 3.87272C18.6818 4.42726 18.9954 5.17807 18.9999 5.9623C19.0045 6.74653 18.6997 7.50094 18.1516 8.0619L17.4805 8.73295L17.8171 9.06947C18.1926 9.44511 18.4036 9.95452 18.4036 10.4857C18.4036 11.0168 18.1926 11.5262 17.8171 11.9019L16.8756 12.8434C16.7815 12.9373 16.654 12.99 16.5211 12.9899C16.3882 12.9898 16.2608 12.9369 16.1669 12.8429C16.073 12.7488 16.0203 12.6213 16.0204 12.4885C16.0205 12.3556 16.0734 12.2282 16.1674 12.1343L17.1089 11.1938C17.2967 11.006 17.4022 10.7513 17.4022 10.4857C17.4022 10.2201 17.2967 9.9654 17.1089 9.77758L16.7724 9.44105L8.77941 17.4345C8.44009 17.774 8.01096 18.0095 7.5424 18.1136L3.61002 18.9879C3.5277 19.0063 3.44207 19.0036 3.36107 18.9801C3.28007 18.9566 3.20633 18.913 3.14668 18.8533C3.08704 18.7937 3.04343 18.7199 3.01989 18.6389C2.99635 18.558 2.99366 18.4723 3.01205 18.39L3.89148 14.4338C3.99164 13.9811 4.22001 13.5655 4.54754 13.238L13.9378 3.84832Z" fill="#81C7A1"/>
</svg>
