<svg width="18" height="18" viewBox="0 0 18 18" fill="none" xmlns="http://www.w3.org/2000/svg">
<g id="Group 1756">
<path id="Union" fill-rule="evenodd" clip-rule="evenodd" d="M10.7071 1.53966H17.2243C17.6591 1.53966 18.0117 1.85112 18.0059 2.24485V15.0205C18.0059 15.4084 17.6591 15.7257 17.2243 15.7257H10.7071V18L-0.00585938 16.1547V1.6572L10.7071 0V1.53966ZM5.98825 12L7.44565 12.0999L5.7767 8.70909L7.45152 5.31831L6.07053 5.3947L5.04212 7.8805L4.17239 5.4946L2.79139 5.571L4.23116 8.77961L2.67386 11.7825L4.01372 11.9001L5.00099 9.40841L5.98825 12ZM10.6895 15.1322H17.3301V2.20372H10.6308V3.49069H12.2762V4.90694H10.6308V5.74142H12.2762V7.15768H10.6308V7.99215H12.2762V9.40841H10.6366L10.6425 10.2488H12.2762V11.665H10.6543L10.6601 12.4995H12.2762V13.9157H10.6778L10.6895 15.1322ZM13.176 3.4895H15.9556V4.90576H13.176V3.4895ZM15.9556 5.74121H13.176V7.15747H15.9556V5.74121ZM13.176 7.99121H15.9556V9.40747H13.176V7.99121ZM15.9556 10.25H13.176V11.6663H15.9556V10.25ZM13.176 12.5H15.9556V13.9163H13.176V12.5Z" fill="white"/>
</g>
</svg>
