<svg width="22" height="22" viewBox="0 0 22 22" fill="none" xmlns="http://www.w3.org/2000/svg">
<g id="Frame 88">
<rect width="22" height="22" fill="white"/>
<g id="Group 1756">
<path id="Union" fill-rule="evenodd" clip-rule="evenodd" d="M12.4024 4.87129H17.7563C18.1135 4.87129 18.4032 5.12716 18.3983 5.45061V15.9459C18.3983 16.2646 18.1135 16.5253 17.7563 16.5253H12.4024V18.3936L3.60156 16.8777V4.96784L12.4024 3.60645V4.87129ZM8.52577 13.4645L9.72303 13.5466L8.35198 10.761L9.72786 7.97547L8.59336 8.03823L7.74852 10.0803L7.03403 8.1203L5.89953 8.18306L7.0823 10.819L5.80297 13.2859L6.90368 13.3824L7.71473 11.3355L8.52577 13.4645ZM12.3879 16.0377H17.8431V5.41682H12.3396V6.47407H13.6914V7.63754H12.3396V8.32306H13.6914V9.48653H12.3396V10.1721H13.6914V11.3355H12.3444L12.3493 12.0259H13.6914V13.1893H12.3589L12.3638 13.8749H13.6914V15.0383H12.3782L12.3879 16.0377ZM14.4305 6.47305H16.714V7.63651H14.4305V6.47305ZM16.714 8.32292H14.4305V9.48638H16.714V8.32292ZM14.4305 10.1712H16.714V11.3347H14.4305V10.1712ZM16.714 12.0268H14.4305V13.1902H16.714V12.0268ZM14.4305 13.8753H16.714V15.0388H14.4305V13.8753Z" fill="#81C7A1"/>
</g>
</g>
</svg>
