<svg width="14" height="18" viewBox="0 0 14 18" fill="none" xmlns="http://www.w3.org/2000/svg">
<path id="Vector" d="M5 13.2956H9C9.55 13.2956 10 12.8456 10 12.2956V7.29557H11.59C12.48 7.29557 12.93 6.21557 12.3 5.58557L7.71 0.995569C7.61749 0.902865 7.5076 0.829318 7.38662 0.779136C7.26565 0.728955 7.13597 0.703125 7.005 0.703125C6.87403 0.703125 6.74435 0.728955 6.62338 0.779136C6.5024 0.829318 6.39251 0.902865 6.3 0.995569L1.71 5.58557C1.08 6.21557 1.52 7.29557 2.41 7.29557H4V12.2956C4 12.8456 4.45 13.2956 5 13.2956ZM1 15.2956H13C13.55 15.2956 14 15.7456 14 16.2956C14 16.8456 13.55 17.2956 13 17.2956H1C0.45 17.2956 0 16.8456 0 16.2956C0 15.7456 0.45 15.2956 1 15.2956Z" fill="#7E7E7E"/>
</svg>
