<svg width="19" height="18" viewBox="0 0 19 18" fill="none" xmlns="http://www.w3.org/2000/svg">
<path d="M13.5535 2.55698C13.0091 2.55698 12.4974 2.76889 12.1124 3.15366C11.3178 3.94798 11.3178 5.2404 12.1124 6.03471C12.4973 6.41949 13.0091 6.6314 13.5534 6.6314C14.0978 6.6314 14.6096 6.41949 14.9945 6.03471C15.7891 5.2404 15.7891 3.94798 14.9945 3.15366C14.6096 2.76889 14.0978 2.55698 13.5535 2.55698ZM14.207 5.24742C14.0324 5.42192 13.8003 5.51804 13.5534 5.51804C13.3066 5.51804 13.0745 5.42192 12.8999 5.24746C12.5396 4.88725 12.5396 4.30113 12.8999 3.94092C13.0745 3.76642 13.3066 3.67034 13.5534 3.67034C13.8003 3.67034 14.0324 3.76642 14.207 3.94092C14.5673 4.30113 14.5673 4.88721 14.207 5.24742Z" fill="#8DCCAA"/>
<path d="M16.5516 1.59716C15.5213 0.567221 14.1514 0 12.6944 0C11.2373 0 9.86739 0.567221 8.83711 1.59716C7.26944 3.16425 6.81409 5.50057 7.64667 7.52388L0.152915 15.015L0.14679 17.9939L5.51376 18V15.932H7.58185V13.8647H9.64994V11.4713L10.6231 10.4985C11.2771 10.7658 11.9855 10.9058 12.6947 10.9058C14.1516 10.9058 15.5214 10.3387 16.5516 9.30883C18.6785 7.18271 18.6785 3.72327 16.5516 1.59716ZM15.7641 8.52157C14.9442 9.34112 13.8541 9.79247 12.6947 9.79247C12.0215 9.79247 11.3493 9.63419 10.751 9.33477L10.3919 9.15507L8.53617 11.0101V12.7513H6.46808V14.8187H4.39999V16.8854L1.26286 16.8818L1.26576 15.4771L8.99096 7.75457L8.8112 7.39563C7.97319 5.72235 8.30009 3.7085 9.62466 2.38442C10.4446 1.56476 11.5348 1.11336 12.6944 1.11336C13.8539 1.11336 14.9441 1.56476 15.7641 2.38442C17.4567 4.07643 17.4567 6.82955 15.7641 8.52157Z" fill="#8DCCAA"/>
</svg>
