<svg width="23" height="22" viewBox="0 0 23 22" fill="none" xmlns="http://www.w3.org/2000/svg">
<path d="M16.5328 3.12518C15.8674 3.12518 15.2419 3.38418 14.7714 3.85447C13.8003 4.82529 13.8003 6.40493 14.7714 7.37575C15.2419 7.84604 15.8674 8.10504 16.5327 8.10504C17.198 8.10504 17.8235 7.84604 18.294 7.37575C19.2652 6.40493 19.2652 4.82529 18.294 3.85447C17.8236 3.38418 17.1981 3.12518 16.5328 3.12518ZM17.3315 6.4135C17.1181 6.62678 16.8345 6.74426 16.5327 6.74426C16.231 6.74426 15.9473 6.62678 15.734 6.41355C15.2935 5.97329 15.2935 5.25693 15.734 4.81667C15.9473 4.6034 16.231 4.48596 16.5327 4.48596C16.8345 4.48596 17.1181 4.6034 17.3315 4.81667C17.7719 5.25693 17.7719 5.97324 17.3315 6.4135Z" fill="#8DCCAA"/>
<path d="M20.1971 1.95208C18.9379 0.69327 17.2636 0 15.4827 0C13.7018 0 12.0275 0.69327 10.7683 1.95208C8.85225 3.86742 8.29571 6.72292 9.31331 9.19586L0.154277 18.3516L0.14679 21.9925L6.70642 22V19.4725H9.23409V16.9458H11.7618V14.0204L12.9511 12.8315C13.7504 13.1582 14.6164 13.3294 15.4831 13.3294C17.2638 13.3294 18.938 12.6362 20.1971 11.3775C22.7967 8.77887 22.7967 4.55067 20.1971 1.95208ZM19.2346 10.4153C18.2325 11.4169 16.9002 11.9686 15.4831 11.9686C14.6603 11.9686 13.8388 11.7751 13.1075 11.4092L12.6686 11.1895L10.4005 13.4568V15.585H7.87281V18.1117H5.34515V20.6377L1.51088 20.6333L1.51442 18.9165L10.9563 9.47781L10.7366 9.0391C9.71239 6.99399 10.1119 4.53261 11.7309 2.91429C12.733 1.91248 14.0654 1.36078 15.4827 1.36078C16.9 1.36078 18.2324 1.91248 19.2346 2.91429C21.3034 4.9823 21.3034 8.34723 19.2346 10.4153Z" fill="#8DCCAA"/>
</svg>
