<svg width="22" height="22" viewBox="0 0 22 22" fill="none" xmlns="http://www.w3.org/2000/svg">
<g id="ri:search-eye-line">
<g id="Group 1881">
<path id="Vector" d="M16.3447 9.77063H11.7617C11.345 9.77063 10.9453 9.60508 10.6506 9.3104C10.3559 9.01572 10.1904 8.61605 10.1904 8.19931V3.61629C10.1904 3.58157 10.1766 3.54826 10.152 3.5237C10.1275 3.49915 10.0942 3.48535 10.0594 3.48535H7.04773C6.49208 3.48535 5.95918 3.70608 5.56628 4.09899C5.17337 4.4919 4.95264 5.02479 4.95264 5.58045V16.0559C4.95264 16.6116 5.17337 17.1445 5.56628 17.5374C5.95918 17.9303 6.49208 18.151 7.04773 18.151H14.3806C14.9362 18.151 15.4691 17.9303 15.862 17.5374C16.2549 17.1445 16.4757 16.6116 16.4757 16.0559V9.90158C16.4757 9.86685 16.4619 9.83354 16.4373 9.80898C16.4127 9.78443 16.3794 9.77063 16.3447 9.77063Z" fill="#81C7A1"/>
<path id="Vector_2" d="M16.0572 8.61154L11.3494 3.9038C11.3403 3.8947 11.3286 3.88851 11.316 3.88601C11.3033 3.88351 11.2902 3.8848 11.2782 3.88973C11.2663 3.89467 11.2561 3.90302 11.2489 3.91373C11.2417 3.92445 11.2378 3.93705 11.2378 3.94996V8.1994C11.2378 8.33831 11.293 8.47154 11.3912 8.56976C11.4894 8.66799 11.6227 8.72317 11.7616 8.72317H16.011C16.0239 8.72312 16.0365 8.71925 16.0472 8.71205C16.058 8.70486 16.0663 8.69465 16.0712 8.68272C16.0762 8.67079 16.0775 8.65767 16.075 8.64501C16.0725 8.63234 16.0663 8.6207 16.0572 8.61154Z" fill="#81C7A1"/>
</g>
</g>
</svg>
