<svg width="22" height="22" viewBox="0 0 22 22" fill="none" xmlns="http://www.w3.org/2000/svg">
<g id="ri:search-eye-line">
<path id="Vector" d="M16.1383 4.20542C16.0772 4.14201 16.0036 4.09115 15.9218 4.05587C15.8401 4.0206 15.7518 4.00163 15.6623 4.0001C15.5727 3.99857 15.4838 4.01451 15.4008 4.04697C15.3178 4.07943 15.2424 4.12775 15.1791 4.18904C15.1158 4.25032 15.0659 4.32333 15.0323 4.40369C14.9988 4.48406 14.9823 4.57014 14.9839 4.6568C14.9855 4.74346 15.0051 4.82892 15.0415 4.90809C15.078 4.98726 15.1305 5.05851 15.196 5.1176L16.7249 6.59774H13.4448C12.325 6.59774 11.251 7.0284 10.4592 7.79497C9.66731 8.56155 9.22245 9.60124 9.22245 10.6853V11.5459C9.22245 12.2876 8.91807 12.999 8.37628 13.5235C7.83449 14.048 7.09966 14.3427 6.33346 14.3427H3.66669C3.48987 14.3427 3.3203 14.4107 3.19527 14.5317C3.07024 14.6527 3 14.8169 3 14.9881C3 15.1593 3.07024 15.3234 3.19527 15.4445C3.3203 15.5655 3.48987 15.6335 3.66669 15.6335H6.33346C7.4533 15.6335 8.52728 15.2028 9.31913 14.4363C10.111 13.6697 10.5558 12.63 10.5558 11.5459V10.6853C10.5558 9.94359 10.8602 9.23222 11.402 8.70772C11.9438 8.18322 12.6786 7.88856 13.4448 7.88856H16.7249L15.196 9.36871C15.0782 9.49105 15.0141 9.65288 15.0172 9.82008C15.0202 9.98729 15.0902 10.1468 15.2123 10.2651C15.3345 10.3833 15.4993 10.4511 15.672 10.454C15.8447 10.457 16.0119 10.3949 16.1383 10.2809L18.805 7.69924C18.9299 7.57823 19 7.41419 19 7.24315C19 7.07212 18.9299 6.90808 18.805 6.78706L16.1383 4.20542ZM13.0004 5.52206C11.6448 5.52206 10.3447 6.04338 9.38613 6.97134C8.42758 7.89929 7.88907 9.15788 7.88907 10.4702V11.3308C7.88907 11.8443 7.67835 12.3368 7.30326 12.6999C6.92817 13.063 6.41945 13.267 5.88899 13.267H3.66669C3.48987 13.267 3.3203 13.199 3.19527 13.0779C3.07024 12.9569 3 12.7927 3 12.6216C3 12.4504 3.07024 12.2862 3.19527 12.1652C3.3203 12.0442 3.48987 11.9762 3.66669 11.9762H5.88899C6.06581 11.9762 6.23539 11.9082 6.36042 11.7871C6.48545 11.6661 6.55569 11.5019 6.55569 11.3308V10.4702C6.55569 8.81553 7.23468 7.22862 8.44329 6.05859C9.6519 4.88855 11.2911 4.23124 13.0004 4.23124H13.4448C13.6216 4.23124 13.7912 4.29923 13.9162 4.42027C14.0413 4.54131 14.1115 4.70547 14.1115 4.87665C14.1115 5.04782 14.0413 5.21198 13.9162 5.33302C13.7912 5.45406 13.6216 5.52206 13.4448 5.52206H13.0004ZM13.8128 8.96511C13.5959 9.38247 13.5462 9.85147 13.6617 10.2938C13.533 10.339 13.4219 10.4215 13.3433 10.5301C13.2647 10.6386 13.2226 10.7679 13.2226 10.9005V11.761C13.2226 13.4157 12.5436 15.0026 11.335 16.1726C10.1264 17.3427 8.48715 18 6.77792 18H6.33346C6.15664 18 5.98706 17.932 5.86203 17.811C5.737 17.6899 5.66676 17.5258 5.66676 17.3546C5.66676 17.1834 5.737 17.0193 5.86203 16.8982C5.98706 16.7772 6.15664 16.7092 6.33346 16.7092H6.77792C8.13352 16.7092 9.4336 16.1879 10.3921 15.2599C11.3507 14.3319 11.8892 13.0734 11.8892 11.761V10.9005C11.8888 10.3995 12.089 9.91793 12.4477 9.55687C12.8064 9.19581 13.2957 8.98426 13.8128 8.96511Z" fill="#81C7A1"/>
</g>
</svg>
