<svg width="72" height="72" viewBox="0 0 72 72" fill="none" xmlns="http://www.w3.org/2000/svg">
<circle cx="36" cy="36" r="35" fill="white" stroke="#F4A950" stroke-width="2"/>
<path d="M35.384 25.44C37.56 25.44 39.2987 26.0373 40.6 27.232C41.9227 28.4267 42.584 30.0587 42.584 32.128C42.584 34.2827 41.9013 35.904 40.536 36.992C39.1707 38.08 37.3573 38.624 35.096 38.624L34.968 41.152H31.8L31.64 36.128H32.696C34.7653 36.128 36.344 35.8507 37.432 35.296C38.5413 34.7413 39.096 33.6853 39.096 32.128C39.096 30.9973 38.7653 30.112 38.104 29.472C37.464 28.832 36.568 28.512 35.416 28.512C34.264 28.512 33.3573 28.8213 32.696 29.44C32.0347 30.0587 31.704 30.9227 31.704 32.032H28.28C28.28 30.752 28.568 29.6107 29.144 28.608C29.72 27.6053 30.5413 26.8267 31.608 26.272C32.696 25.7173 33.9547 25.44 35.384 25.44ZM33.336 48.224C32.6747 48.224 32.12 48 31.672 47.552C31.224 47.104 31 46.5493 31 45.888C31 45.2267 31.224 44.672 31.672 44.224C32.12 43.776 32.6747 43.552 33.336 43.552C33.976 43.552 34.52 43.776 34.968 44.224C35.416 44.672 35.64 45.2267 35.64 45.888C35.64 46.5493 35.416 47.104 34.968 47.552C34.52 48 33.976 48.224 33.336 48.224Z" fill="#F4A950"/>
</svg>
