<svg width="18" height="20" viewBox="0 0 18 20" fill="none" xmlns="http://www.w3.org/2000/svg">
<g id="Group 1860">
<path id="Vector" d="M0.100098 4.47008C0.100098 3.99146 0.441264 3.60283 0.862531 3.60283H3.49792C4.02104 3.587 4.48285 3.20826 4.66085 2.64855L4.69052 2.54966L4.80424 2.163C4.87347 1.92567 4.93379 1.718 5.01883 1.53308C5.35308 0.80229 5.97212 0.29499 6.68709 0.165446C6.86904 0.132812 7.06089 0.132813 7.28042 0.132813H10.7198C10.9403 0.132813 11.1321 0.132812 11.3131 0.165446C12.0281 0.29499 12.6481 0.80229 12.9814 1.53308C13.0664 1.718 13.1267 1.92468 13.1969 2.163L13.3097 2.54966L13.3393 2.64855C13.5173 3.20826 14.0711 3.58799 14.5952 3.60283H17.1367C17.5589 3.60283 17.9001 3.99146 17.9001 4.47008C17.9001 4.9487 17.5589 5.33734 17.1377 5.33734H0.861542C0.441264 5.33734 0.100098 4.9487 0.100098 4.47008Z" fill="#6A6A6A"/>
<path id="Vector_2" fill-rule="evenodd" clip-rule="evenodd" d="M8.60106 19.8679H9.40008C12.1522 19.8679 13.5277 19.8679 14.4236 18.9917C15.3176 18.1156 15.4086 16.6787 15.5915 13.805L15.8556 9.66355C15.9544 8.10407 16.0039 7.32384 15.5559 6.83038C15.107 6.33594 14.3495 6.33594 12.8335 6.33594H5.16764C3.65167 6.33594 2.89319 6.33594 2.44522 6.83038C1.99627 7.32483 2.04571 8.10407 2.14559 9.66355L2.40962 13.805C2.59257 16.6787 2.68355 18.1166 3.57849 18.9917C4.47344 19.8679 5.84898 19.8679 8.60106 19.8679ZM7.26606 10.1659C7.2265 9.73673 6.86259 9.42424 6.45517 9.46676C6.04676 9.50928 5.75009 9.89198 5.79064 10.3212L6.28508 15.5257C6.32464 15.9549 6.68855 16.2674 7.09597 16.2248C7.50438 16.1823 7.80105 15.7996 7.7605 15.3704L7.26606 10.1659ZM11.547 9.46676C11.9544 9.50928 12.252 9.89198 12.2105 10.3212L11.7161 15.5257C11.6765 15.9549 11.3116 16.2674 10.9052 16.2248C10.4968 16.1823 10.2001 15.7996 10.2406 15.3704L10.7351 10.1659C10.7746 9.73673 11.1405 9.42424 11.547 9.46676Z" fill="#6A6A6A"/>
</g>
</svg>
