<svg width="22" height="22" viewBox="0 0 22 22" fill="none" xmlns="http://www.w3.org/2000/svg">
<g id="Frame 88">
<rect width="22" height="22" fill="white"/>
<g id="Group 765">
<path id="Vector" d="M9.00295 2.23043H12.4097V2.80366H13.6399V2.15019C13.6401 1.516 13.1244 1 12.4905 1H8.92208C8.2882 1 7.77251 1.516 7.77251 2.15019V2.80366H9.00295V2.23043Z" fill="#71C899"/>
<path id="Vector_2" d="M16.4817 7.67773H4.93195C4.61547 7.67773 4.36634 7.94771 4.39184 8.26325L5.35743 20.2031C5.41124 20.8696 5.96721 21.3829 6.63514 21.3829H14.7784C15.4463 21.3829 16.0023 20.8696 16.0561 20.2029L17.0217 8.26325C17.0473 7.94771 16.7982 7.67773 16.4817 7.67773ZM7.72857 20.1094C7.71566 20.1102 7.70275 20.1107 7.69 20.1107C7.36746 20.1107 7.09671 19.8595 7.07665 19.5332L6.47154 9.73131C6.4507 9.39213 6.7087 9.10023 7.04772 9.07939C7.38566 9.05886 7.6788 9.31624 7.69964 9.65557L8.30459 19.4575C8.32559 19.7967 8.06759 20.0884 7.72857 20.1094ZM11.3289 19.4955C11.3289 19.8351 11.0535 20.1105 10.7137 20.1105C10.3739 20.1105 10.0985 19.8351 10.0985 19.4955V9.69336C10.0985 9.35356 10.3739 9.07815 10.7137 9.07815C11.0533 9.07815 11.3289 9.35356 11.3289 9.69336V19.4955ZM14.9421 9.7296L14.3644 19.5315C14.3453 19.8584 14.074 20.1105 13.7509 20.1105C13.7387 20.1105 13.7265 20.1102 13.7142 20.1096C13.375 20.0895 13.1162 19.7984 13.1363 19.4592L13.7139 9.65713C13.7338 9.31795 14.024 9.05917 14.3641 9.07923C14.7033 9.09914 14.962 9.39042 14.9421 9.7296Z" fill="#71C899"/>
<path id="Vector_3" d="M18.609 5.78097L18.205 4.56982C18.0985 4.25054 17.7996 4.03516 17.4629 4.03516H3.95036C3.61383 4.03516 3.31477 4.25054 3.2084 4.56982L2.80437 5.78097C2.72646 6.01455 2.82785 6.2528 3.01711 6.37161C3.09425 6.41998 3.18554 6.44906 3.28584 6.44906H18.1276C18.2279 6.44906 18.3193 6.41998 18.3963 6.37146C18.5855 6.25264 18.6869 6.01439 18.609 5.78097Z" fill="#71C899"/>
</g>
</g>
</svg>
