<svg width="22" height="22" viewBox="0 0 22 22" fill="none" xmlns="http://www.w3.org/2000/svg">
<g id="Frame 88">
<rect width="22" height="22" fill="white"/>
<path id="Vector" d="M9 15.5924H13C13.55 15.5924 14 15.1424 14 14.5924V9.59244H15.59C16.48 9.59244 16.93 8.51244 16.3 7.88244L11.71 3.29244C11.6175 3.19974 11.5076 3.12619 11.3866 3.07601C11.2657 3.02583 11.136 3 11.005 3C10.874 3 10.7443 3.02583 10.6234 3.07601C10.5024 3.12619 10.3925 3.19974 10.3 3.29244L5.71 7.88244C5.08 8.51244 5.52 9.59244 6.41 9.59244H8V14.5924C8 15.1424 8.45 15.5924 9 15.5924ZM5 17.5924H17C17.55 17.5924 18 18.0424 18 18.5924C18 19.1424 17.55 19.5924 17 19.5924H5C4.45 19.5924 4 19.1424 4 18.5924C4 18.0424 4.45 17.5924 5 17.5924Z" fill="#81C7A1"/>
</g>
</svg>
