<svg width="23" height="22" viewBox="0 0 23 22" fill="none" xmlns="http://www.w3.org/2000/svg">
<g id="Frame 88" clip-path="url(#clip0_1_2761)">
<rect width="22" height="22" transform="translate(0.5)" fill="white"/>
<path id="Vector" d="M20.6176 11H12.2353M18.8529 13.625L21.5 11L18.8529 8.375M14.4412 6.625V5.75C14.4412 5.28587 14.2553 4.84075 13.9243 4.51256C13.5934 4.18437 13.1445 4 12.6765 4H8.26471C7.79668 4 7.34782 4.18437 7.01687 4.51256C6.68592 4.84075 6.5 5.28587 6.5 5.75V16.25C6.5 16.7141 6.68592 17.1592 7.01687 17.4874C7.34782 17.8156 7.79668 18 8.26471 18H12.6765C13.1445 18 13.5934 17.8156 13.9243 17.4874C14.2553 17.1592 14.4412 16.7141 14.4412 16.25V15.375" stroke="#81C7A1" stroke-width="2" stroke-linecap="round" stroke-linejoin="round"/>
</g>
<defs>
<clipPath id="clip0_1_2761">
<rect width="22" height="22" fill="white" transform="translate(0.5)"/>
</clipPath>
</defs>
</svg>
