<svg width="23" height="22" viewBox="0 0 23 22" fill="none" xmlns="http://www.w3.org/2000/svg">
<g id="Frame 89">
<rect width="22" height="22" transform="translate(0.5)" fill="white"/>
<path id="Vector" d="M11.5001 8.31745C10.7578 8.31745 10.0459 8.60033 9.52098 9.10386C8.99609 9.60739 8.70121 10.2903 8.70121 11.0024C8.70121 11.7145 8.99609 12.3974 9.52098 12.901C10.0459 13.4045 10.7578 13.6874 11.5001 13.6874C12.2424 13.6874 12.9543 13.4045 13.4792 12.901C14.0041 12.3974 14.2989 11.7145 14.2989 11.0024C14.2989 10.2903 14.0041 9.60739 13.4792 9.10386C12.9543 8.60033 12.2424 8.31745 11.5001 8.31745ZM9.82076 11.0024C9.82076 10.5752 9.99769 10.1654 10.3126 9.86328C10.6276 9.56116 11.0547 9.39144 11.5001 9.39144C11.9455 9.39144 12.3726 9.56116 12.6875 9.86328C13.0025 10.1654 13.1794 10.5752 13.1794 11.0024C13.1794 11.4297 13.0025 11.8394 12.6875 12.1416C12.3726 12.4437 11.9455 12.6134 11.5001 12.6134C11.0547 12.6134 10.6276 12.4437 10.3126 12.1416C9.99769 11.8394 9.82076 11.4297 9.82076 11.0024ZM9.73119 18.3206C10.3106 18.4532 10.9045 18.5203 11.5001 18.5203C12.0951 18.5195 12.688 18.4519 13.2667 18.319C13.433 18.2814 13.5831 18.1953 13.6963 18.0726C13.8096 17.9499 13.8805 17.7966 13.8993 17.6337L14.0302 16.49C14.0429 16.3652 14.0863 16.2451 14.1569 16.1396C14.2275 16.0341 14.3232 15.9462 14.4362 15.8833C14.5492 15.8203 14.6762 15.784 14.8067 15.7775C14.9372 15.7709 15.0675 15.7943 15.1867 15.8456L16.2811 16.3052C16.4378 16.3714 16.612 16.3891 16.7796 16.3559C16.9472 16.3227 17.0999 16.2402 17.2165 16.12C18.0251 15.2842 18.6287 14.2855 18.9831 13.1971C19.0339 13.0397 19.0324 12.871 18.9787 12.7144C18.9251 12.5578 18.8219 12.4212 18.6836 12.3234L17.7158 11.6388C17.6101 11.5649 17.5241 11.468 17.4649 11.3561C17.4056 11.2442 17.3748 11.1205 17.375 10.995C17.3752 10.8695 17.4063 10.7459 17.4658 10.6341C17.5253 10.5224 17.6116 10.4258 17.7175 10.3521L18.6803 9.67014C18.8194 9.57261 18.9232 9.43576 18.9771 9.27878C19.031 9.1218 19.0323 8.95258 18.9809 8.79484C18.6271 7.70603 18.0232 6.70722 17.2137 5.87198C17.0966 5.75193 16.9437 5.66965 16.7758 5.63647C16.608 5.60329 16.4336 5.62085 16.2766 5.68672L15.1873 6.14638C15.0679 6.19631 14.9379 6.21859 14.8079 6.21141C14.6779 6.20424 14.5514 6.16781 14.4388 6.10508C14.3261 6.04235 14.2305 5.95507 14.1595 5.8503C14.0885 5.74553 14.0443 5.62621 14.0302 5.50199L13.8981 4.36357C13.8797 4.19874 13.8078 4.04362 13.6926 3.92003C13.5774 3.79644 13.4248 3.71061 13.2561 3.6746C12.6813 3.55139 12.0946 3.48606 11.5057 3.47968C10.9132 3.4864 10.3231 3.55173 9.74463 3.6746C9.57593 3.70999 9.42312 3.79543 9.30788 3.9188C9.19263 4.04217 9.1208 4.19722 9.10257 4.36196L8.9699 5.50146C8.95541 5.62587 8.91075 5.74529 8.8395 5.85017C8.76825 5.95505 8.67239 6.04246 8.55959 6.10541C8.4468 6.16836 8.3202 6.2051 8.18995 6.21268C8.05969 6.22026 7.9294 6.19848 7.80949 6.14907L6.72018 5.68887C6.563 5.62482 6.38915 5.60851 6.22202 5.64211C6.05489 5.67571 5.9025 5.75762 5.78536 5.87681C4.97572 6.71286 4.37133 7.71209 4.01648 8.80128C3.96597 8.95862 3.96772 9.12713 4.02147 9.28348C4.07523 9.43982 4.17834 9.57626 4.31651 9.67389L5.28212 10.357C5.38731 10.4312 5.47282 10.5281 5.53176 10.6399C5.59069 10.7517 5.6214 10.8753 5.6214 11.0005C5.6214 11.1258 5.59069 11.2493 5.53176 11.3611C5.47282 11.4729 5.38731 11.5699 5.28212 11.6441L4.31651 12.3288C4.17782 12.4266 4.07441 12.5635 4.02072 12.7205C3.96704 12.8774 3.96575 13.0464 4.01704 13.2041C4.37173 14.294 4.97612 15.2939 5.78592 16.1307C5.8629 16.2101 5.95624 16.2733 6.06002 16.3163C6.1638 16.3593 6.27576 16.3811 6.38879 16.3804C6.50243 16.3804 6.61494 16.3579 6.71962 16.3144L7.81397 15.8531C7.93334 15.8036 8.06313 15.7817 8.19293 15.7891C8.32273 15.7965 8.44891 15.833 8.56134 15.8956C8.67376 15.9583 8.76929 16.0454 8.84025 16.1499C8.91121 16.2545 8.95561 16.3735 8.9699 16.4975L9.10145 17.6391C9.12055 17.8011 9.19128 17.9535 9.30397 18.0756C9.41667 18.1976 9.56585 18.2828 9.73119 18.3206ZM12.8105 17.3185C11.9468 17.4885 11.0561 17.4885 10.1924 17.3185L10.0833 16.3842C10.0299 15.9271 9.80272 15.5049 9.44515 15.1985C9.1652 14.962 8.82125 14.8063 8.453 14.7493C8.08475 14.6923 7.7072 14.7363 7.36392 14.8763L6.46492 15.2522C5.88499 14.6151 5.43871 13.8767 5.15058 13.0774L5.94769 12.5124C6.19396 12.3384 6.39414 12.1112 6.5321 11.8493C6.67006 11.5874 6.74194 11.298 6.74194 11.0046C6.74194 10.7111 6.67006 10.4218 6.5321 10.1598C6.39414 9.89792 6.19396 9.67077 5.94769 9.49669L5.15225 8.93338C5.44073 8.13485 5.88699 7.39716 6.4666 6.7607L7.36224 7.1366C7.6091 7.24117 7.87606 7.29495 8.14592 7.29448C8.62648 7.29303 9.08972 7.1222 9.44755 6.81448C9.80538 6.50676 10.0328 6.08361 10.0867 5.6255L10.1952 4.68737C10.6285 4.60682 11.0685 4.56386 11.509 4.5585C11.9468 4.56386 12.3834 4.60682 12.8133 4.68737L12.9174 5.62174C12.9693 6.08014 13.196 6.50397 13.5539 6.81172C13.834 7.04964 14.1789 7.20626 14.5483 7.26331C14.9177 7.32035 15.2963 7.27548 15.6402 7.13392L16.5358 6.75802C17.1162 7.3943 17.5629 8.13225 17.8513 8.93123L17.0547 9.49293C16.8072 9.66641 16.6058 9.89348 16.467 10.1557C16.3282 10.4179 16.2558 10.7078 16.2558 11.0019C16.2558 11.296 16.3282 11.5859 16.467 11.8481C16.6058 12.1103 16.8072 12.3374 17.0547 12.5108L17.8507 13.0747C17.5621 13.8722 17.1165 14.609 16.538 15.2452L15.6424 14.8693C15.3621 14.7497 15.0563 14.6953 14.75 14.7108C14.4436 14.7262 14.1454 14.811 13.8798 14.9582C13.6141 15.1053 13.3885 15.3107 13.2215 15.5575C13.0544 15.8043 12.9506 16.0856 12.9185 16.3783L12.8105 17.3185Z" fill="#81C7A1" stroke="#81C7A1" stroke-width="0.8"/>
</g>
</svg>
