<svg width="177" height="184" viewBox="0 0 177 184" fill="none" xmlns="http://www.w3.org/2000/svg">
<g id="Frame 4">
<g clip-path="url(#clip0_593_4106)">
<g id="Rectangle 44" filter="url(#filter0_d_593_4106)">
<rect x="136.725" y="-102.215" width="220.289" height="270.149" rx="10" transform="rotate(23.095 136.725 -102.215)" fill="black" fill-opacity="0.01" shape-rendering="crispEdges"/>
</g>
<path id="Vector" d="M127.856 68.3389C129.815 68.3388 131.701 69.0875 133.127 70.432C134.553 71.7765 135.411 73.615 135.526 75.5714L135.539 76.0222V101.633H137.46C139.117 101.633 140.482 102.893 140.646 104.507L140.661 104.835V109.317C140.661 111.276 139.912 113.162 138.568 114.588C137.223 116.014 135.385 116.872 133.429 116.987L132.978 117H107.367C105.407 117 103.521 116.251 102.095 114.907C100.669 113.562 99.8111 111.724 99.6961 109.767L99.6833 109.317V83.7055H95.2014C94.4088 83.7059 93.6443 83.4123 93.0558 82.8814C92.4672 82.3506 92.0965 81.6204 92.0154 80.832L92 80.5042V76.0222C91.9999 74.0624 92.7487 72.1767 94.0932 70.7508C95.4376 69.3249 97.2762 68.4666 99.2326 68.3517L99.6833 68.3389H127.856ZM127.856 73.4611H104.806V109.317C104.806 109.996 105.075 110.647 105.556 111.128C106.036 111.608 106.687 111.878 107.367 111.878C108.046 111.878 108.697 111.608 109.178 111.128C109.658 110.647 109.928 109.996 109.928 109.317V104.835C109.928 103.068 111.362 101.633 113.129 101.633H130.417V76.0222C130.417 75.343 130.147 74.6915 129.667 74.2112C129.186 73.7309 128.535 73.4611 127.856 73.4611ZM135.539 106.756H115.05V109.317C115.05 110.213 114.896 111.076 114.615 111.878H132.978C133.657 111.878 134.308 111.608 134.789 111.128C135.269 110.647 135.539 109.996 135.539 109.317V106.756ZM117.611 91.3889C118.29 91.3889 118.942 91.6587 119.422 92.139C119.902 92.6193 120.172 93.2707 120.172 93.95C120.172 94.6292 119.902 95.2807 119.422 95.761C118.942 96.2413 118.29 96.5111 117.611 96.5111H112.489C111.81 96.5111 111.158 96.2413 110.678 95.761C110.198 95.2807 109.928 94.6292 109.928 93.95C109.928 93.2707 110.198 92.6193 110.678 92.139C111.158 91.6587 111.81 91.3889 112.489 91.3889H117.611ZM122.733 81.1444C123.413 81.1444 124.064 81.4143 124.544 81.8946C125.025 82.3749 125.294 83.0263 125.294 83.7055C125.294 84.3848 125.025 85.0362 124.544 85.5165C124.064 85.9968 123.413 86.2667 122.733 86.2667H112.489C111.81 86.2667 111.158 85.9968 110.678 85.5165C110.198 85.0362 109.928 84.3848 109.928 83.7055C109.928 83.0263 110.198 82.3749 110.678 81.8946C111.158 81.4143 111.81 81.1444 112.489 81.1444H122.733ZM99.6833 73.4611C99.056 73.4612 98.4506 73.6915 97.9818 74.1083C97.513 74.5252 97.2135 75.0996 97.1402 75.7226L97.1222 76.0222L97.1402 72.2926L99.2326 71.775L99.6833 73.4611Z" fill="#1EA95E"/>
</g>
</g>
<defs>
<filter id="filter0_d_593_4106" x="11.876" y="-116.096" width="346.365" height="372.671" filterUnits="userSpaceOnUse" color-interpolation-filters="sRGB">
<feFlood flood-opacity="0" result="BackgroundImageFix"/>
<feColorMatrix in="SourceAlpha" type="matrix" values="0 0 0 0 0 0 0 0 0 0 0 0 0 0 0 0 0 0 127 0" result="hardAlpha"/>
<feOffset dy="5"/>
<feGaussianBlur stdDeviation="11"/>
<feComposite in2="hardAlpha" operator="out"/>
<feColorMatrix type="matrix" values="0 0 0 0 0.13854 0 0 0 0 0.11139 0 0 0 0 0.421667 0 0 0 0.12 0"/>
<feBlend mode="normal" in2="BackgroundImageFix" result="effect1_dropShadow_593_4106"/>
<feBlend mode="normal" in="SourceGraphic" in2="effect1_dropShadow_593_4106" result="shape"/>
</filter>
<clipPath id="clip0_593_4106">
<rect width="177" height="184" rx="20" fill="white"/>
</clipPath>
</defs>
</svg>
