<svg width="177" height="184" viewBox="0 0 177 184" fill="none" xmlns="http://www.w3.org/2000/svg">
<g id="Frame 4">
<g clip-path="url(#clip0_1804_737)">
<g id="Rectangle 44" filter="url(#filter0_d_1804_737)">
<rect x="136.725" y="-102.215" width="220.289" height="270.149" rx="10" transform="rotate(23.095 136.725 -102.215)" fill="black" fill-opacity="0.01" shape-rendering="crispEdges"/>
</g>
<path id="Vector" d="M117.5 102.01H102.5C101.837 102.01 101.201 102.273 100.732 102.742C100.263 103.211 100 103.847 100 104.51C100 105.173 100.263 105.809 100.732 106.278C101.201 106.747 101.837 107.01 102.5 107.01H117.5C118.163 107.01 118.799 106.747 119.268 106.278C119.737 105.809 120 105.173 120 104.51C120 103.847 119.737 103.211 119.268 102.742C118.799 102.273 118.163 102.01 117.5 102.01ZM107.5 87.0099H112.5C113.163 87.0099 113.799 86.7465 114.268 86.2777C114.737 85.8089 115 85.173 115 84.5099C115 83.8469 114.737 83.211 114.268 82.7422C113.799 82.2733 113.163 82.0099 112.5 82.0099H107.5C106.837 82.0099 106.201 82.2733 105.732 82.7422C105.263 83.211 105 83.8469 105 84.5099C105 85.173 105.263 85.8089 105.732 86.2777C106.201 86.7465 106.837 87.0099 107.5 87.0099ZM137.5 92.0099H130V69.5099C130.002 69.0694 129.887 68.6362 129.668 68.2543C129.448 67.8724 129.132 67.5552 128.75 67.3349C128.37 67.1155 127.939 67 127.5 67C127.061 67 126.63 67.1155 126.25 67.3349L118.75 71.6349L111.25 67.3349C110.87 67.1155 110.439 67 110 67C109.561 67 109.13 67.1155 108.75 67.3349L101.25 71.6349L93.75 67.3349C93.37 67.1155 92.9389 67 92.5 67C92.0612 67 91.6301 67.1155 91.25 67.3349C90.8685 67.5552 90.552 67.8724 90.3325 68.2543C90.113 68.6362 89.9983 69.0694 90 69.5099V109.51C90 111.499 90.7902 113.407 92.1967 114.813C93.6032 116.22 95.5109 117.01 97.5 117.01H132.5C134.489 117.01 136.397 116.22 137.803 114.813C139.21 113.407 140 111.499 140 109.51V94.5099C140 93.8469 139.737 93.211 139.268 92.7422C138.799 92.2733 138.163 92.0099 137.5 92.0099ZM97.5 112.01C96.837 112.01 96.2011 111.747 95.7323 111.278C95.2634 110.809 95 110.173 95 109.51V73.8349L100 76.6849C100.386 76.8865 100.815 76.9917 101.25 76.9917C101.685 76.9917 102.114 76.8865 102.5 76.6849L110 72.3849L117.5 76.6849C117.886 76.8865 118.315 76.9917 118.75 76.9917C119.185 76.9917 119.614 76.8865 120 76.6849L125 73.8349V109.51C125.007 110.363 125.159 111.208 125.45 112.01H97.5ZM135 109.51C135 110.173 134.737 110.809 134.268 111.278C133.799 111.747 133.163 112.01 132.5 112.01C131.837 112.01 131.201 111.747 130.732 111.278C130.263 110.809 130 110.173 130 109.51V97.0099H135V109.51ZM117.5 92.0099H102.5C101.837 92.0099 101.201 92.2733 100.732 92.7422C100.263 93.211 100 93.8469 100 94.5099C100 95.173 100.263 95.8089 100.732 96.2777C101.201 96.7465 101.837 97.0099 102.5 97.0099H117.5C118.163 97.0099 118.799 96.7465 119.268 96.2777C119.737 95.8089 120 95.173 120 94.5099C120 93.8469 119.737 93.211 119.268 92.7422C118.799 92.2733 118.163 92.0099 117.5 92.0099Z" fill="#1EA95E"/>
</g>
</g>
<defs>
<filter id="filter0_d_1804_737" x="11.876" y="-116.097" width="346.365" height="372.671" filterUnits="userSpaceOnUse" color-interpolation-filters="sRGB">
<feFlood flood-opacity="0" result="BackgroundImageFix"/>
<feColorMatrix in="SourceAlpha" type="matrix" values="0 0 0 0 0 0 0 0 0 0 0 0 0 0 0 0 0 0 127 0" result="hardAlpha"/>
<feOffset dy="5"/>
<feGaussianBlur stdDeviation="11"/>
<feComposite in2="hardAlpha" operator="out"/>
<feColorMatrix type="matrix" values="0 0 0 0 0.13854 0 0 0 0 0.11139 0 0 0 0 0.421667 0 0 0 0.12 0"/>
<feBlend mode="normal" in2="BackgroundImageFix" result="effect1_dropShadow_1804_737"/>
<feBlend mode="normal" in="SourceGraphic" in2="effect1_dropShadow_1804_737" result="shape"/>
</filter>
<clipPath id="clip0_1804_737">
<rect width="177" height="184" rx="20" fill="white"/>
</clipPath>
</defs>
</svg>
