<svg width="177" height="184" viewBox="0 0 177 184" fill="none" xmlns="http://www.w3.org/2000/svg">
<g id="Frame 4">
<g clip-path="url(#clip0_2193_1020)">
<g id="Rectangle 44" filter="url(#filter0_d_2193_1020)">
<rect x="136.725" y="-102.215" width="220.289" height="270.149" rx="10" transform="rotate(23.095 136.725 -102.215)" fill="black" fill-opacity="0.01" shape-rendering="crispEdges"/>
</g>
<g id="Group">
<path id="Vector" d="M112.313 72.9718C113.368 68.6227 119.554 68.6227 120.61 72.9718C120.768 73.6251 121.078 74.2318 121.515 74.7426C121.952 75.2533 122.504 75.6536 123.125 75.911C123.746 76.1683 124.419 76.2753 125.089 76.2233C125.76 76.1714 126.408 75.9619 126.982 75.6119C130.804 73.2838 135.18 77.6576 132.852 81.4816C132.502 82.0554 132.293 82.7035 132.241 83.3733C132.189 84.0431 132.296 84.7156 132.553 85.3363C132.81 85.957 133.21 86.5083 133.72 86.9453C134.231 87.3824 134.837 87.6929 135.489 87.8517C139.838 88.9067 139.838 95.0935 135.489 96.1486C134.836 96.3069 134.229 96.6172 133.719 97.0543C133.208 97.4914 132.808 98.043 132.55 98.664C132.293 99.2851 132.186 99.9581 132.238 100.628C132.29 101.299 132.499 101.947 132.849 102.521C135.177 106.343 130.804 110.719 126.98 108.391C126.406 108.041 125.758 107.832 125.088 107.78C124.418 107.729 123.746 107.835 123.125 108.092C122.504 108.349 121.953 108.749 121.516 109.259C121.079 109.77 120.768 110.376 120.61 111.028C119.554 115.378 113.368 115.378 112.313 111.028C112.154 110.375 111.844 109.768 111.407 109.258C110.97 108.747 110.418 108.347 109.797 108.089C109.176 107.832 108.503 107.725 107.833 107.777C107.163 107.829 106.514 108.038 105.94 108.388C102.119 110.716 97.7423 106.343 100.07 102.519C100.42 101.945 100.629 101.297 100.681 100.627C100.733 99.9572 100.626 99.2846 100.369 98.6639C100.112 98.0433 99.7119 97.492 99.2017 97.0549C98.6916 96.6178 98.0855 96.3073 97.4327 96.1486C93.0836 95.0935 93.0836 88.9067 97.4327 87.8517C98.086 87.6934 98.6928 87.383 99.2035 86.9459C99.7143 86.5088 100.115 85.9573 100.372 85.3362C100.629 84.7152 100.736 84.0421 100.684 83.3719C100.632 82.7016 100.423 82.0531 100.073 81.4792C97.7448 77.6576 102.119 73.2813 105.943 75.6094C108.419 77.1152 111.629 75.7828 112.313 72.9718Z" stroke="#1EA95E" stroke-width="5" stroke-linecap="round" stroke-linejoin="round"/>
<path id="Vector_2" d="M109.031 92.0001C109.031 93.9707 109.814 95.8606 111.207 97.254C112.601 98.6474 114.491 99.4302 116.461 99.4302C118.432 99.4302 120.322 98.6474 121.715 97.254C123.109 95.8606 123.891 93.9707 123.891 92.0001C123.891 90.0295 123.109 88.1397 121.715 86.7463C120.322 85.3529 118.432 84.5701 116.461 84.5701C114.491 84.5701 112.601 85.3529 111.207 86.7463C109.814 88.1397 109.031 90.0295 109.031 92.0001Z" stroke="#1EA95E" stroke-width="5" stroke-linecap="round" stroke-linejoin="round"/>
</g>
</g>
</g>
<defs>
<filter id="filter0_d_2193_1020" x="11.876" y="-116.096" width="346.365" height="372.671" filterUnits="userSpaceOnUse" color-interpolation-filters="sRGB">
<feFlood flood-opacity="0" result="BackgroundImageFix"/>
<feColorMatrix in="SourceAlpha" type="matrix" values="0 0 0 0 0 0 0 0 0 0 0 0 0 0 0 0 0 0 127 0" result="hardAlpha"/>
<feOffset dy="5"/>
<feGaussianBlur stdDeviation="11"/>
<feComposite in2="hardAlpha" operator="out"/>
<feColorMatrix type="matrix" values="0 0 0 0 0.13854 0 0 0 0 0.11139 0 0 0 0 0.421667 0 0 0 0.12 0"/>
<feBlend mode="normal" in2="BackgroundImageFix" result="effect1_dropShadow_2193_1020"/>
<feBlend mode="normal" in="SourceGraphic" in2="effect1_dropShadow_2193_1020" result="shape"/>
</filter>
<clipPath id="clip0_2193_1020">
<rect width="177" height="184" rx="20" fill="white"/>
</clipPath>
</defs>
</svg>
